<?xml version="1.0" standalone="no"?>
<!DOCTYPE svg PUBLIC "-//W3C//DTD SVG 20010904//EN"
 "http://www.w3.org/TR/2001/REC-SVG-20010904/DTD/svg10.dtd">
<svg version="1.0" xmlns="http://www.w3.org/2000/svg"
 width="260.000000pt" height="260.000000pt" viewBox="0 0 260.000000 260.000000"
 preserveAspectRatio="xMidYMid meet">
<metadata>
Created by potrace 1.14, written by Peter Selinger 2001-2017
</metadata>
<g transform="translate(0.000000,260.000000) scale(0.100000,-0.100000)"
fill="#000000" stroke="none">
<path d="M0 1295 l0 -805 1300 0 1300 0 0 805 0 805 -1300 0 -1300 0 0 -805z
m1440 635 c17 -27 40 -71 50 -97 31 -82 81 -70 129 30 49 102 88 130 115 82 6
-11 32 -55 58 -98 27 -43 61 -107 77 -142 16 -35 43 -84 60 -108 16 -24 38
-66 49 -93 10 -27 39 -81 65 -120 26 -40 54 -93 62 -119 7 -26 22 -57 33 -69
11 -11 24 -35 29 -51 6 -17 22 -48 37 -69 14 -21 26 -44 26 -51 0 -6 11 -21
24 -34 12 -12 29 -41 35 -64 7 -23 21 -51 32 -62 10 -11 25 -41 34 -65 9 -25
27 -62 40 -82 35 -53 41 -85 20 -108 -18 -20 -38 -20 -1066 -20 -774 0 -1055
3 -1074 12 -34 15 -34 62 1 109 28 38 104 184 104 200 0 13 67 126 92 154 10
12 23 36 29 54 11 30 64 125 87 154 5 7 17 37 27 67 17 52 56 119 95 165 10
11 23 37 30 58 6 21 34 78 62 128 27 50 57 108 65 128 25 60 85 151 99 151 22
0 50 -34 86 -101 86 -160 81 -154 120 -163 41 -10 68 3 68 33 0 17 6 28 64
131 41 72 73 110 92 110 6 0 26 -22 44 -50z"/>
<path d="M1340 1753 c-52 -75 -100 -171 -100 -202 0 -32 60 -151 84 -166 23
-14 67 40 122 150 48 96 50 125 15 175 -10 14 -25 40 -35 58 -23 44 -46 40
-86 -15z"/>
<path d="M926 1742 c-13 -20 -31 -43 -40 -51 -9 -7 -16 -18 -16 -24 0 -15 -80
-178 -95 -193 -7 -8 -21 -37 -31 -66 -16 -49 -62 -130 -97 -169 -8 -9 -22 -38
-31 -64 -9 -27 -25 -58 -35 -69 -10 -12 -24 -38 -30 -58 -7 -20 -18 -42 -26
-48 -8 -6 -21 -33 -30 -60 -9 -27 -23 -54 -31 -61 -9 -7 -25 -31 -36 -53 -11
-23 -26 -48 -33 -56 -23 -27 -28 -66 -10 -84 23 -23 205 -23 243 0 36 22 100
106 117 153 13 38 65 135 95 181 10 14 21 36 25 50 12 37 85 158 100 164 7 2
20 29 29 60 9 30 21 58 27 62 6 3 19 26 30 51 11 25 28 56 39 70 31 39 26 97
-14 177 -39 77 -81 126 -108 126 -10 0 -28 -17 -42 -38z"/>
<path d="M1657 1741 c-55 -61 -57 -94 -9 -188 66 -132 112 -215 147 -273 19
-30 48 -83 64 -116 16 -34 34 -64 39 -68 6 -3 13 -19 17 -36 3 -16 20 -46 36
-66 16 -20 29 -47 29 -60 0 -13 14 -39 30 -57 17 -19 30 -38 30 -41 0 -4 15
-29 34 -57 19 -27 38 -58 41 -68 7 -24 54 -41 111 -41 82 0 97 54 34 125 -10
11 -32 53 -50 93 -17 40 -45 97 -62 125 -17 29 -36 68 -44 89 -7 20 -35 67
-62 105 -28 37 -55 86 -61 108 -6 22 -18 51 -28 64 -9 14 -38 67 -64 118 -25
52 -53 101 -62 111 -8 9 -22 35 -31 57 -9 21 -20 42 -24 45 -5 3 -18 20 -31
38 -12 17 -28 32 -36 32 -7 0 -29 -18 -48 -39z"/>
<path d="M1490 1453 c-7 -21 -26 -62 -43 -92 -39 -71 -41 -149 -5 -213 14 -24
32 -64 42 -90 9 -25 24 -52 32 -59 8 -6 23 -32 34 -57 12 -26 27 -53 35 -62 7
-8 21 -35 31 -60 28 -71 71 -127 106 -139 39 -14 233 -14 259 -1 10 6 19 18
19 27 0 22 -76 178 -106 218 -12 17 -26 44 -29 60 -4 17 -20 46 -35 65 -15 19
-34 49 -44 65 -9 17 -20 37 -25 45 -5 8 -28 56 -52 105 -23 50 -50 99 -60 110
-10 11 -26 38 -35 60 -20 48 -28 55 -76 55 -33 0 -37 -3 -48 -37z"/>
<path d="M1142 1384 c-12 -8 -34 -40 -48 -70 -14 -30 -37 -68 -50 -84 -14 -16
-36 -56 -49 -90 -13 -33 -33 -72 -44 -86 -12 -15 -21 -32 -21 -39 0 -6 -11
-22 -25 -35 -14 -13 -31 -42 -37 -64 -7 -23 -22 -54 -35 -69 -13 -16 -23 -37
-23 -47 0 -10 -12 -32 -26 -49 -46 -55 -11 -81 104 -81 66 0 112 17 112 41 0
6 22 44 49 85 28 41 57 99 66 129 8 30 23 59 33 64 19 10 79 124 107 202 16
43 16 51 -1 110 -9 35 -21 72 -26 82 -11 21 -56 22 -86 1z"/>
<path d="M1304 1093 c-10 -16 -27 -44 -39 -63 -12 -19 -26 -46 -30 -60 -11
-35 -73 -151 -94 -175 -10 -11 -24 -35 -31 -53 -11 -29 -10 -35 5 -52 17 -19
32 -20 215 -20 176 0 200 2 220 18 l22 18 -35 75 c-19 41 -42 93 -50 116 -22
56 -135 223 -153 223 -7 0 -21 -12 -30 -27z"/>
</g>
</svg>
